<svg width="200" height="180" viewBox="0 0 410 183" fill="none" xmlns="http://www.w3.org/2000/svg">
<g clip-path="url(#clip0_4_5)">
<path d="M209.8 63.9986C214.109 63.9986 217.649 60.7751 218.216 56.6174L226.013 50.7722C226.956 50.0659 227.148 48.7284 226.44 47.7854C225.734 46.8424 224.396 46.6484 223.453 47.3587L218.016 51.4377C217.203 48.8372 214.801 46.9322 211.934 46.9322H203.401C199.872 46.9322 197.001 49.8037 197.001 53.3321C197.001 49.8037 194.129 46.9322 190.601 46.9322H182.067C179.2 46.9322 176.798 48.8372 175.985 51.4377L170.547 47.3587C169.606 46.6524 168.267 46.8444 167.56 47.7854C166.852 48.7284 167.044 50.0659 167.987 50.7722L175.784 56.6174C176.352 60.7751 179.889 63.9986 184.2 63.9986H188.467C193.173 63.9986 197 60.1714 197 55.4654C197 60.1716 200.827 63.9986 205.533 63.9986H209.8ZM192.734 55.4654C192.734 57.8184 190.818 59.7321 188.467 59.7321H184.2C181.849 59.7321 179.933 57.8186 179.933 55.4654V53.3321C179.933 52.1567 180.889 51.1989 182.067 51.1989H190.6C191.777 51.1989 192.733 52.1567 192.733 53.3321V55.4654H192.734ZM201.267 55.4654V53.3321C201.267 52.1567 202.223 51.1989 203.4 51.1989H211.933C213.111 51.1989 214.066 52.1567 214.066 53.3321V55.4654C214.066 57.8184 212.151 59.7321 209.8 59.7321H205.533C203.183 59.7319 201.267 57.8184 201.267 55.4654Z" fill="white"/>
<path d="M260.936 125.347L258.756 116.658C257.661 113.368 251.184 102.787 214.067 102.499V100.265C214.067 99.0877 213.113 98.1319 211.934 98.1319C210.754 98.1319 209.8 99.0877 209.8 100.265V104.532C209.8 104.547 209.809 104.56 209.809 104.575C209.809 104.587 209.8 104.598 209.8 104.613C209.792 105.914 209.363 117.332 197.001 117.332C184.638 117.332 184.209 105.836 184.201 104.532V100.265C184.201 99.0879 183.247 98.1322 182.067 98.1322C180.888 98.1322 179.934 99.0879 179.934 100.265V102.42C152.29 102.637 138.447 107.049 135.198 116.813L133.065 125.347C132.777 126.49 133.474 127.648 134.618 127.934C135.757 128.225 136.918 127.525 137.203 126.383L139.29 118.006C141.769 110.571 155.119 106.857 180.074 106.671C180.849 112.779 185 121.598 197 121.598C208.993 121.598 213.147 112.833 213.926 106.757C243.165 106.972 253.33 113.874 254.664 117.85L256.797 126.383C257.04 127.352 257.908 127.998 258.864 127.998C259.035 127.998 259.209 127.979 259.382 127.934C260.526 127.648 261.221 126.49 260.936 125.347Z" fill="white"/>
<path d="M147.659 10.6483L196.725 17.0483C196.817 17.0591 196.909 17.0653 197 17.0653C197.092 17.0653 197.184 17.0588 197.276 17.0483L243.933 10.9621V18.3691C242.596 19.8731 239.666 23.6255 239.666 27.7323C239.666 32.4277 243.494 34.1322 246.066 34.1322C248.639 34.1322 252.466 32.4277 252.466 27.7323C252.466 23.6255 249.537 19.8731 248.2 18.3691V8.53211C248.2 8.25061 248.14 7.98386 248.04 7.73636C248.003 7.64886 247.941 7.58061 247.895 7.49961C247.811 7.35036 247.728 7.20312 247.613 7.07937C247.538 7.00037 247.449 6.94712 247.364 6.88312C247.242 6.78487 247.123 6.69112 246.982 6.62287C246.877 6.57162 246.766 6.55037 246.653 6.51837C246.549 6.48637 246.455 6.43087 246.342 6.41587L197.276 0.0158993C197.092 -0.00535062 196.909 -0.00535062 196.725 0.0158993L147.659 6.41587C146.596 6.55462 145.801 7.46111 145.801 8.53211C145.801 9.6031 146.596 10.5098 147.659 10.6483ZM248.2 27.732C248.2 29.4345 247.046 29.8333 246.067 29.8653C245.087 29.8333 243.933 29.4343 243.933 27.732C243.933 25.9613 245.021 23.9858 246.067 22.5288C247.112 23.986 248.2 25.9615 248.2 27.732ZM197 4.28263L229.574 8.53211L197 12.7818L164.427 8.53211L197 4.28263Z" fill="white"/>
<path d="M201.918 77.4C201.849 77.4618 200.241 78.9318 197 78.9318C193.807 78.9318 192.198 77.5045 192.087 77.4023C191.258 76.5895 189.92 76.5958 189.092 77.4235C188.258 78.2578 188.258 79.606 189.092 80.44C189.374 80.7215 191.993 83.1985 197 83.1985C202.007 83.1985 204.627 80.7218 204.908 80.44C205.732 79.6165 205.73 78.2983 204.921 77.4618C204.108 76.6258 202.769 76.6023 201.918 77.4Z" fill="white"/>
<path d="M162.867 43.0302C160.384 43.9112 158.6 46.2834 158.6 49.0654V57.5986C158.6 60.5746 160.642 63.0833 163.4 63.7958C164.542 67.1623 167.695 76.2908 169.493 79.8853C172.881 86.6627 182.487 98.1317 197 98.1317C211.513 98.1317 221.119 86.663 224.507 79.8853C226.306 76.2905 229.459 67.1621 230.6 63.7958C233.358 63.0833 235.4 60.5746 235.4 57.5986V49.0654C235.4 46.2837 233.616 43.9112 231.133 43.0302V40.5322C231.133 39.3547 230.18 38.399 229 38.399C227.82 38.399 226.867 39.3547 226.867 40.5322V44.7989C226.867 45.9764 227.82 46.9322 229 46.9322C230.177 46.9322 231.133 47.8899 231.133 49.0654V57.5986C231.133 58.7741 230.177 59.7319 229 59.7319C228.08 59.7319 227.265 60.3186 226.977 61.1911C226.933 61.3169 222.732 73.895 220.693 77.9783C220.366 78.6268 212.569 93.8652 197 93.8652C181.431 93.8652 173.634 78.6268 173.308 77.9783C171.266 73.895 167.068 61.3171 167.023 61.1911C166.733 60.3186 165.92 59.7319 165 59.7319C163.823 59.7319 162.867 58.7741 162.867 57.5986V49.0654C162.867 47.8899 163.823 46.9322 165 46.9322C166.18 46.9322 167.134 45.9764 167.134 44.7989V40.532C167.134 39.3545 166.18 38.3987 165 38.3987C163.821 38.3987 162.867 39.3545 162.867 40.532V43.0302V43.0302Z" fill="white"/>
<path d="M165.001 14.9321C163.821 14.9321 162.867 15.8878 162.867 17.0653V31.9985C162.867 32.807 163.324 33.5453 164.047 33.9078C164.589 34.1765 177.521 40.5317 197 40.5317C216.48 40.5317 229.412 34.1765 229.954 33.9078C230.677 33.545 231.133 32.807 231.133 31.9985V17.0656C231.133 15.8881 230.18 14.9323 229 14.9323C227.82 14.9323 226.867 15.8881 226.867 17.0656V30.6185C223.338 32.114 212.172 36.2655 197 36.2655C181.828 36.2655 170.662 32.114 167.134 30.6185V17.0656C167.134 15.8878 166.18 14.9321 165.001 14.9321Z" fill="white"/>
</g>
<path d="M11.2579 171C10.7459 171 10.2979 170.824 9.91394 170.472C9.56194 170.088 9.38594 169.64 9.38594 169.128V135.384C9.38594 134.84 9.56194 134.392 9.91394 134.04C10.2979 133.688 10.7459 133.512 11.2579 133.512C12.0259 133.512 12.5859 133.832 12.9379 134.472L29.1139 166.632H27.4819L43.3699 134.472C43.7539 133.832 44.3139 133.512 45.0499 133.512C45.5619 133.512 45.9939 133.688 46.3459 134.04C46.6979 134.392 46.8739 134.84 46.8739 135.384V169.128C46.8739 169.64 46.6979 170.088 46.3459 170.472C45.9939 170.824 45.5619 171 45.0499 171C44.5059 171 44.0419 170.824 43.6579 170.472C43.3059 170.088 43.1299 169.64 43.1299 169.128V140.232L43.9459 140.28L29.7859 169.224C29.4339 169.832 28.8899 170.136 28.1539 170.136C27.3539 170.136 26.7779 169.752 26.4259 168.984L12.1699 140.472L13.1299 140.232V169.128C13.1299 169.64 12.9379 170.088 12.5539 170.472C12.2019 170.824 11.7699 171 11.2579 171ZM67.5833 171.24C65.1193 171.24 62.9113 170.664 60.9593 169.512C59.0073 168.328 57.4553 166.728 56.3033 164.712C55.1833 162.696 54.6233 160.424 54.6233 157.896C54.6233 155.336 55.1993 153.048 56.3513 151.032C57.5353 149.016 59.1353 147.432 61.1513 146.28C63.1673 145.096 65.4393 144.504 67.9673 144.504C70.4953 144.504 72.7513 145.096 74.7353 146.28C76.7513 147.432 78.3353 149.016 79.4873 151.032C80.6713 153.048 81.2793 155.336 81.3113 157.896L79.8233 159.048C79.8233 161.352 79.2793 163.432 78.1913 165.288C77.1353 167.112 75.6793 168.568 73.8233 169.656C71.9993 170.712 69.9193 171.24 67.5833 171.24ZM67.9673 167.88C69.8233 167.88 71.4713 167.448 72.9113 166.584C74.3833 165.72 75.5353 164.536 76.3673 163.032C77.2313 161.496 77.6633 159.784 77.6633 157.896C77.6633 155.976 77.2313 154.264 76.3673 152.76C75.5353 151.256 74.3833 150.072 72.9113 149.208C71.4713 148.312 69.8233 147.864 67.9673 147.864C66.1433 147.864 64.4953 148.312 63.0233 149.208C61.5513 150.072 60.3833 151.256 59.5193 152.76C58.6553 154.264 58.2233 155.976 58.2233 157.896C58.2233 159.784 58.6553 161.496 59.5193 163.032C60.3833 164.536 61.5513 165.72 63.0233 166.584C64.4953 167.448 66.1433 167.88 67.9673 167.88ZM79.4393 171C78.8953 171 78.4473 170.84 78.0953 170.52C77.7433 170.168 77.5673 169.72 77.5673 169.176V160.968L78.4793 157.176L81.3113 157.896V169.176C81.3113 169.72 81.1353 170.168 80.7833 170.52C80.4313 170.84 79.9833 171 79.4393 171ZM81.5397 182.232C80.9957 182.232 80.5477 182.056 80.1957 181.704C79.8437 181.384 79.6677 180.936 79.6677 180.36C79.6677 179.816 79.8437 179.368 80.1957 179.016C80.5477 178.664 80.9957 178.488 81.5397 178.488C83.0117 178.488 84.3077 178.168 85.4277 177.528C86.5477 176.888 87.4277 176.008 88.0677 174.888C88.7397 173.768 89.0757 172.472 89.0757 171V146.616C89.0757 146.04 89.2357 145.592 89.5557 145.272C89.9077 144.92 90.3557 144.744 90.8997 144.744C91.4437 144.744 91.8917 144.92 92.2437 145.272C92.5957 145.592 92.7717 146.04 92.7717 146.616V171C92.7717 173.176 92.2917 175.112 91.3317 176.808C90.3717 178.504 89.0437 179.832 87.3477 180.792C85.6517 181.752 83.7157 182.232 81.5397 182.232ZM90.8517 139.752C90.1477 139.752 89.5397 139.496 89.0277 138.984C88.5157 138.472 88.2597 137.848 88.2597 137.112C88.2597 136.312 88.5157 135.688 89.0277 135.24C89.5717 134.76 90.1957 134.52 90.8997 134.52C91.5717 134.52 92.1637 134.76 92.6757 135.24C93.2197 135.688 93.4917 136.312 93.4917 137.112C93.4917 137.848 93.2357 138.472 92.7237 138.984C92.2117 139.496 91.5877 139.752 90.8517 139.752ZM112.217 171.24C109.657 171.24 107.369 170.664 105.353 169.512C103.337 168.36 101.753 166.776 100.601 164.76C99.4493 162.744 98.8733 160.456 98.8733 157.896C98.8733 155.304 99.4493 153 100.601 150.984C101.753 148.968 103.337 147.384 105.353 146.232C107.369 145.08 109.657 144.504 112.217 144.504C114.777 144.504 117.049 145.08 119.033 146.232C121.049 147.384 122.633 148.968 123.785 150.984C124.937 153 125.529 155.304 125.561 157.896C125.561 160.456 124.969 162.744 123.785 164.76C122.633 166.776 121.049 168.36 119.033 169.512C117.049 170.664 114.777 171.24 112.217 171.24ZM112.217 167.88C114.073 167.88 115.737 167.448 117.209 166.584C118.681 165.72 119.833 164.536 120.665 163.032C121.497 161.528 121.913 159.816 121.913 157.896C121.913 155.976 121.497 154.264 120.665 152.76C119.833 151.224 118.681 150.024 117.209 149.16C115.737 148.296 114.073 147.864 112.217 147.864C110.361 147.864 108.697 148.296 107.225 149.16C105.753 150.024 104.585 151.224 103.721 152.76C102.889 154.264 102.473 155.976 102.473 157.896C102.473 159.816 102.889 161.528 103.721 163.032C104.585 164.536 105.753 165.72 107.225 166.584C108.697 167.448 110.361 167.88 112.217 167.88ZM134.286 154.824C134.382 152.84 134.894 151.064 135.822 149.496C136.782 147.928 138.014 146.696 139.518 145.8C141.054 144.904 142.75 144.456 144.606 144.456C146.078 144.456 147.214 144.664 148.014 145.08C148.814 145.496 149.118 146.104 148.926 146.904C148.798 147.384 148.574 147.704 148.254 147.864C147.966 148.024 147.598 148.088 147.15 148.056C146.734 148.024 146.254 147.992 145.71 147.96C143.918 147.8 142.318 147.992 140.91 148.536C139.534 149.048 138.43 149.848 137.598 150.936C136.798 152.024 136.398 153.32 136.398 154.824H134.286ZM134.574 171C133.998 171 133.55 170.84 133.23 170.52C132.91 170.2 132.75 169.752 132.75 169.176V146.568C132.75 145.992 132.91 145.544 133.23 145.224C133.55 144.904 133.998 144.744 134.574 144.744C135.15 144.744 135.598 144.904 135.918 145.224C136.238 145.544 136.398 145.992 136.398 146.568V169.176C136.398 169.752 136.238 170.2 135.918 170.52C135.598 170.84 135.15 171 134.574 171Z" fill="white"/>
<path d="M181.195 171.48C179.147 171.48 177.243 171.192 175.483 170.616C173.755 170.008 172.251 169.16 170.971 168.072C169.691 166.984 168.715 165.72 168.043 164.28C167.787 163.768 167.771 163.304 167.995 162.888C168.251 162.44 168.667 162.136 169.243 161.976C169.691 161.848 170.123 161.896 170.539 162.12C170.987 162.344 171.323 162.68 171.547 163.128C172.027 164.056 172.731 164.888 173.659 165.624C174.587 166.36 175.691 166.936 176.971 167.352C178.251 167.736 179.659 167.928 181.195 167.928C182.891 167.928 184.395 167.656 185.707 167.112C187.019 166.536 188.043 165.72 188.779 164.664C189.547 163.576 189.931 162.264 189.931 160.728C189.931 158.776 189.211 157.096 187.771 155.688C186.331 154.28 184.075 153.384 181.003 153C177.259 152.552 174.331 151.4 172.219 149.544C170.107 147.656 169.051 145.352 169.051 142.632C169.051 140.68 169.563 138.984 170.587 137.544C171.643 136.104 173.083 135 174.907 134.232C176.731 133.432 178.827 133.032 181.195 133.032C182.955 133.032 184.555 133.32 185.995 133.896C187.435 134.44 188.683 135.176 189.739 136.104C190.827 137 191.707 137.992 192.379 139.08C192.699 139.592 192.795 140.088 192.667 140.568C192.571 141.048 192.299 141.416 191.851 141.672C191.371 141.896 190.875 141.928 190.363 141.768C189.883 141.608 189.515 141.304 189.259 140.856C188.779 140.12 188.171 139.432 187.435 138.792C186.731 138.12 185.867 137.592 184.843 137.208C183.819 136.824 182.587 136.616 181.147 136.584C178.619 136.584 176.587 137.128 175.051 138.216C173.515 139.272 172.747 140.824 172.747 142.872C172.747 143.96 173.035 144.968 173.611 145.896C174.187 146.792 175.131 147.576 176.443 148.248C177.787 148.888 179.579 149.368 181.819 149.688C185.819 150.264 188.779 151.496 190.699 153.384C192.651 155.24 193.627 157.672 193.627 160.68C193.627 162.408 193.307 163.944 192.667 165.288C192.059 166.632 191.179 167.768 190.027 168.696C188.907 169.592 187.579 170.28 186.043 170.76C184.539 171.24 182.923 171.48 181.195 171.48ZM211.248 171C209.552 171 208.032 170.6 206.688 169.8C205.376 169 204.336 167.912 203.568 166.536C202.8 165.128 202.416 163.528 202.416 161.736V138.264C202.416 137.72 202.576 137.272 202.896 136.92C203.248 136.568 203.696 136.392 204.24 136.392C204.784 136.392 205.232 136.568 205.584 136.92C205.936 137.272 206.112 137.72 206.112 138.264V161.736C206.112 163.368 206.592 164.712 207.552 165.768C208.512 166.792 209.744 167.304 211.248 167.304H212.544C213.056 167.304 213.472 167.48 213.792 167.832C214.112 168.184 214.272 168.632 214.272 169.176C214.272 169.72 214.08 170.168 213.696 170.52C213.312 170.84 212.832 171 212.256 171H211.248ZM199.296 148.92C198.816 148.92 198.416 148.776 198.096 148.488C197.776 148.168 197.616 147.784 197.616 147.336C197.616 146.856 197.776 146.472 198.096 146.184C198.416 145.864 198.816 145.704 199.296 145.704H211.536C212.016 145.704 212.416 145.864 212.736 146.184C213.056 146.472 213.216 146.856 213.216 147.336C213.216 147.784 213.056 148.168 212.736 148.488C212.416 148.776 212.016 148.92 211.536 148.92H199.296ZM231.857 171.24C229.393 171.24 227.185 170.664 225.233 169.512C223.281 168.328 221.729 166.728 220.577 164.712C219.457 162.696 218.897 160.424 218.897 157.896C218.897 155.336 219.473 153.048 220.625 151.032C221.809 149.016 223.409 147.432 225.425 146.28C227.441 145.096 229.713 144.504 232.241 144.504C234.769 144.504 237.025 145.096 239.009 146.28C241.025 147.432 242.609 149.016 243.761 151.032C244.945 153.048 245.553 155.336 245.585 157.896L244.097 159.048C244.097 161.352 243.553 163.432 242.465 165.288C241.409 167.112 239.953 168.568 238.097 169.656C236.273 170.712 234.193 171.24 231.857 171.24ZM232.241 167.88C234.097 167.88 235.745 167.448 237.185 166.584C238.657 165.72 239.809 164.536 240.641 163.032C241.505 161.496 241.937 159.784 241.937 157.896C241.937 155.976 241.505 154.264 240.641 152.76C239.809 151.256 238.657 150.072 237.185 149.208C235.745 148.312 234.097 147.864 232.241 147.864C230.417 147.864 228.769 148.312 227.297 149.208C225.825 150.072 224.657 151.256 223.793 152.76C222.929 154.264 222.497 155.976 222.497 157.896C222.497 159.784 222.929 161.496 223.793 163.032C224.657 164.536 225.825 165.72 227.297 166.584C228.769 167.448 230.417 167.88 232.241 167.88ZM243.713 171C243.169 171 242.721 170.84 242.369 170.52C242.017 170.168 241.841 169.72 241.841 169.176V160.968L242.753 157.176L245.585 157.896V169.176C245.585 169.72 245.409 170.168 245.057 170.52C244.705 170.84 244.257 171 243.713 171ZM263.045 171C261.349 171 259.829 170.6 258.485 169.8C257.173 169 256.133 167.912 255.365 166.536C254.597 165.128 254.213 163.528 254.213 161.736V138.264C254.213 137.72 254.373 137.272 254.693 136.92C255.045 136.568 255.493 136.392 256.037 136.392C256.581 136.392 257.029 136.568 257.381 136.92C257.733 137.272 257.909 137.72 257.909 138.264V161.736C257.909 163.368 258.389 164.712 259.349 165.768C260.309 166.792 261.541 167.304 263.045 167.304H264.341C264.853 167.304 265.269 167.48 265.589 167.832C265.909 168.184 266.069 168.632 266.069 169.176C266.069 169.72 265.877 170.168 265.493 170.52C265.109 170.84 264.629 171 264.053 171H263.045ZM251.093 148.92C250.613 148.92 250.213 148.776 249.893 148.488C249.573 148.168 249.413 147.784 249.413 147.336C249.413 146.856 249.573 146.472 249.893 146.184C250.213 145.864 250.613 145.704 251.093 145.704H263.333C263.813 145.704 264.213 145.864 264.533 146.184C264.853 146.472 265.013 146.856 265.013 147.336C265.013 147.784 264.853 148.168 264.533 148.488C264.213 148.776 263.813 148.92 263.333 148.92H251.093ZM274.726 171C274.15 171 273.686 170.84 273.334 170.52C273.014 170.168 272.854 169.704 272.854 169.128V146.616C272.854 146.04 273.014 145.592 273.334 145.272C273.686 144.92 274.15 144.744 274.726 144.744C275.27 144.744 275.702 144.92 276.022 145.272C276.374 145.592 276.55 146.04 276.55 146.616V169.128C276.55 169.704 276.374 170.168 276.022 170.52C275.702 170.84 275.27 171 274.726 171ZM274.678 139.752C273.974 139.752 273.366 139.496 272.854 138.984C272.342 138.472 272.086 137.848 272.086 137.112C272.086 136.312 272.342 135.688 272.854 135.24C273.398 134.76 274.022 134.52 274.726 134.52C275.398 134.52 275.99 134.76 276.502 135.24C277.046 135.688 277.318 136.312 277.318 137.112C277.318 137.848 277.062 138.472 276.55 138.984C276.038 139.496 275.414 139.752 274.678 139.752ZM295.129 171.24C293.241 171.24 291.369 170.92 289.513 170.28C287.657 169.64 286.153 168.68 285.001 167.4C284.649 167.016 284.505 166.584 284.569 166.104C284.633 165.624 284.873 165.208 285.289 164.856C285.737 164.536 286.201 164.408 286.681 164.472C287.161 164.536 287.561 164.744 287.881 165.096C288.649 165.992 289.657 166.68 290.905 167.16C292.185 167.64 293.593 167.88 295.129 167.88C297.497 167.88 299.209 167.48 300.265 166.68C301.321 165.848 301.865 164.856 301.897 163.704C301.897 162.552 301.353 161.608 300.265 160.872C299.177 160.104 297.385 159.512 294.889 159.096C291.657 158.584 289.289 157.688 287.785 156.408C286.281 155.128 285.529 153.608 285.529 151.848C285.529 150.216 285.961 148.856 286.825 147.768C287.689 146.68 288.841 145.864 290.281 145.32C291.721 144.776 293.305 144.504 295.033 144.504C297.177 144.504 299.017 144.872 300.553 145.608C302.121 146.344 303.385 147.336 304.345 148.584C304.665 149 304.793 149.432 304.729 149.88C304.665 150.328 304.409 150.696 303.961 150.984C303.577 151.208 303.129 151.288 302.617 151.224C302.137 151.128 301.721 150.888 301.369 150.504C300.569 149.576 299.641 148.904 298.585 148.488C297.529 148.04 296.313 147.816 294.937 147.816C293.177 147.816 291.769 148.184 290.713 148.92C289.657 149.624 289.129 150.52 289.129 151.608C289.129 152.344 289.321 152.984 289.705 153.528C290.121 154.072 290.809 154.552 291.769 154.968C292.761 155.384 294.137 155.736 295.897 156.024C298.297 156.408 300.185 156.984 301.561 157.752C302.969 158.488 303.961 159.368 304.537 160.392C305.145 161.384 305.449 162.472 305.449 163.656C305.449 165.16 305.001 166.488 304.105 167.64C303.241 168.76 302.025 169.64 300.457 170.28C298.921 170.92 297.145 171.24 295.129 171.24ZM322.108 171C320.412 171 318.892 170.6 317.548 169.8C316.236 169 315.196 167.912 314.428 166.536C313.66 165.128 313.276 163.528 313.276 161.736V138.264C313.276 137.72 313.436 137.272 313.756 136.92C314.108 136.568 314.556 136.392 315.1 136.392C315.644 136.392 316.092 136.568 316.444 136.92C316.796 137.272 316.972 137.72 316.972 138.264V161.736C316.972 163.368 317.452 164.712 318.412 165.768C319.372 166.792 320.604 167.304 322.108 167.304H323.404C323.916 167.304 324.332 167.48 324.652 167.832C324.972 168.184 325.132 168.632 325.132 169.176C325.132 169.72 324.94 170.168 324.556 170.52C324.172 170.84 323.692 171 323.116 171H322.108ZM310.156 148.92C309.676 148.92 309.276 148.776 308.956 148.488C308.636 148.168 308.476 147.784 308.476 147.336C308.476 146.856 308.636 146.472 308.956 146.184C309.276 145.864 309.676 145.704 310.156 145.704H322.396C322.876 145.704 323.276 145.864 323.596 146.184C323.916 146.472 324.076 146.856 324.076 147.336C324.076 147.784 323.916 148.168 323.596 148.488C323.276 148.776 322.876 148.92 322.396 148.92H310.156ZM333.788 171C333.212 171 332.748 170.84 332.396 170.52C332.076 170.168 331.916 169.704 331.916 169.128V146.616C331.916 146.04 332.076 145.592 332.396 145.272C332.748 144.92 333.212 144.744 333.788 144.744C334.332 144.744 334.764 144.92 335.084 145.272C335.436 145.592 335.612 146.04 335.612 146.616V169.128C335.612 169.704 335.436 170.168 335.084 170.52C334.764 170.84 334.332 171 333.788 171ZM333.74 139.752C333.036 139.752 332.428 139.496 331.916 138.984C331.404 138.472 331.148 137.848 331.148 137.112C331.148 136.312 331.404 135.688 331.916 135.24C332.46 134.76 333.084 134.52 333.788 134.52C334.46 134.52 335.052 134.76 335.564 135.24C336.108 135.688 336.38 136.312 336.38 137.112C336.38 137.848 336.124 138.472 335.612 138.984C335.1 139.496 334.476 139.752 333.74 139.752ZM356.735 171.24C354.207 171.24 351.951 170.664 349.967 169.512C348.015 168.328 346.463 166.728 345.311 164.712C344.191 162.696 343.631 160.424 343.631 157.896C343.631 155.336 344.175 153.048 345.263 151.032C346.351 149.016 347.839 147.432 349.727 146.28C351.615 145.096 353.791 144.504 356.255 144.504C358.207 144.504 359.999 144.888 361.631 145.656C363.295 146.424 364.751 147.576 365.999 149.112C366.351 149.496 366.479 149.912 366.383 150.36C366.287 150.776 366.015 151.144 365.567 151.464C365.215 151.72 364.815 151.816 364.367 151.752C363.951 151.656 363.583 151.416 363.263 151.032C361.407 148.92 359.071 147.864 356.255 147.864C354.463 147.864 352.879 148.296 351.503 149.16C350.159 150.024 349.103 151.208 348.335 152.712C347.599 154.216 347.231 155.944 347.231 157.896C347.231 159.816 347.631 161.528 348.431 163.032C349.231 164.536 350.351 165.72 351.791 166.584C353.231 167.448 354.879 167.88 356.735 167.88C357.983 167.88 359.119 167.72 360.143 167.4C361.199 167.048 362.127 166.52 362.927 165.816C363.311 165.496 363.711 165.32 364.127 165.288C364.543 165.256 364.927 165.384 365.279 165.672C365.663 166.024 365.871 166.424 365.903 166.872C365.967 167.32 365.823 167.704 365.471 168.024C363.135 170.168 360.223 171.24 356.735 171.24ZM382.738 171.24C380.85 171.24 378.978 170.92 377.122 170.28C375.266 169.64 373.762 168.68 372.61 167.4C372.258 167.016 372.114 166.584 372.178 166.104C372.242 165.624 372.482 165.208 372.898 164.856C373.346 164.536 373.81 164.408 374.29 164.472C374.77 164.536 375.17 164.744 375.49 165.096C376.258 165.992 377.266 166.68 378.514 167.16C379.794 167.64 381.202 167.88 382.738 167.88C385.106 167.88 386.818 167.48 387.874 166.68C388.93 165.848 389.474 164.856 389.506 163.704C389.506 162.552 388.962 161.608 387.874 160.872C386.786 160.104 384.994 159.512 382.498 159.096C379.266 158.584 376.898 157.688 375.394 156.408C373.89 155.128 373.138 153.608 373.138 151.848C373.138 150.216 373.57 148.856 374.434 147.768C375.298 146.68 376.45 145.864 377.89 145.32C379.33 144.776 380.914 144.504 382.642 144.504C384.786 144.504 386.626 144.872 388.162 145.608C389.73 146.344 390.994 147.336 391.954 148.584C392.274 149 392.402 149.432 392.338 149.88C392.274 150.328 392.018 150.696 391.57 150.984C391.186 151.208 390.738 151.288 390.226 151.224C389.746 151.128 389.33 150.888 388.978 150.504C388.178 149.576 387.25 148.904 386.194 148.488C385.138 148.04 383.922 147.816 382.546 147.816C380.786 147.816 379.378 148.184 378.322 148.92C377.266 149.624 376.738 150.52 376.738 151.608C376.738 152.344 376.93 152.984 377.314 153.528C377.73 154.072 378.418 154.552 379.378 154.968C380.37 155.384 381.746 155.736 383.506 156.024C385.906 156.408 387.794 156.984 389.17 157.752C390.578 158.488 391.57 159.368 392.146 160.392C392.754 161.384 393.058 162.472 393.058 163.656C393.058 165.16 392.61 166.488 391.714 167.64C390.85 168.76 389.634 169.64 388.066 170.28C386.53 170.92 384.754 171.24 382.738 171.24Z" fill="#26C6DA"/>
<defs>
<clipPath id="clip0_4_5">
<rect width="128" height="128" fill="white" transform="translate(133)"/>
</clipPath>
</defs>
</svg>
